<?xml version="1.0" encoding="UTF-8"?>
<svg width="60" height="60" viewBox="0 0 60 60" fill="none" xmlns="http://www.w3.org/2000/svg">
  <path d="M59.0625 0.937501L40.3125 58.4375C40.125 58.9375 39.8125 59.3125 39.375 59.5625C38.9375 59.8125 38.4375 59.9375 37.9375 59.9375C37.4375 59.9375 36.9375 59.8125 36.5 59.5625C36.0625 59.3125 35.75 58.9375 35.5625 58.4375L25.3125 35.3125L2.1875 25.0625C1.6875 24.875 1.3125 24.5625 1.0625 24.125C0.8125 23.6875 0.6875 23.1875 0.6875 22.6875C0.6875 22.1875 0.8125 21.6875 1.0625 21.25C1.3125 20.8125 1.6875 20.5 2.1875 20.3125L59.6875 1.5625C60.1875 1.375 60.6875 1.375 61.1875 1.5625C61.6875 1.75 62.0625 2.0625 62.3125 2.5C62.5625 2.9375 62.6875 3.4375 62.625 3.9375C62.5625 4.4375 62.375 4.875 62.0625 5.25L37.5 30L59.0625 0.937501Z" fill="#4F46E5"/>
</svg> 